<svg width="24" height="24" viewBox="0 0 24 24" fill="none" xmlns="http://www.w3.org/2000/svg">
<path fill-rule="evenodd" clip-rule="evenodd" d="M19.2 0C21.851 0 24 2.14903 24 4.8C24 7.45097 21.851 9.6 19.2 9.6C17.7962 9.6 16.5332 8.99741 15.6555 8.03679L9.6 11.4964V12.5036L15.6555 15.9632C16.5332 15.0026 17.7962 14.4 19.2 14.4C21.851 14.4 24 16.549 24 19.2C24 21.851 21.851 24 19.2 24C16.549 24 14.4 21.851 14.4 19.2C14.4 18.8163 14.445 18.4431 14.5301 18.0854L8.72297 14.7666C7.85385 15.9967 6.42073 16.8 4.8 16.8C2.14903 16.8 0 14.651 0 12C0 9.34903 2.14903 7.2 4.8 7.2C6.42073 7.2 7.85385 8.00326 8.72297 9.23339L14.5301 5.9146C14.445 5.55691 14.4 5.18372 14.4 4.8C14.4 2.14903 16.549 0 19.2 0ZM19.2 16.8C17.8745 16.8 16.8 17.8745 16.8 19.2C16.8 20.5255 17.8745 21.6 19.2 21.6C20.5255 21.6 21.6 20.5255 21.6 19.2C21.6 17.8745 20.5255 16.8 19.2 16.8ZM4.79997 9.60003C3.47449 9.60003 2.39997 10.6745 2.39997 12C2.39997 13.3255 3.47449 14.4 4.79997 14.4C6.12546 14.4 7.19997 13.3255 7.19997 12C7.19997 10.6745 6.12546 9.60003 4.79997 9.60003ZM19.2 2.39997C17.8745 2.39997 16.8 3.47449 16.8 4.79997C16.8 6.12546 17.8745 7.19997 19.2 7.19997C20.5255 7.19997 21.6 6.12546 21.6 4.79997C21.6 3.47449 20.5255 2.39997 19.2 2.39997Z" fill="#363636"/>
</svg>
